<svg width="24" height="24" viewBox="0 0 24 24" fill="none" xmlns="http://www.w3.org/2000/svg">
<path d="M3.50838 7.63599H12.993C13.8196 7.63599 14.5014 8.31774 14.5014 9.14426V20.4918C14.5014 21.3184 13.8196 22.0001 12.993 22.0001H3.50838C2.6818 22.0001 2 21.3184 2 20.4918V9.14426C2 8.31774 2.6818 7.63599 3.50838 7.63599ZM12.9614 9.14426H3.57682L3.50838 20.4918H12.993L12.9614 9.14426ZM12.9956 20.4918H12.993V20.4945L12.9956 20.4918ZM12.9956 20.4918C12.9982 20.4918 12.9956 20.4918 12.993 20.4918H12.9956ZM3.50838 20.4945V20.4918H3.50574L3.50838 20.4945ZM3.50838 20.4945C3.50838 20.4971 3.50574 20.4918 3.50838 20.4918V20.4945Z" fill="white"/>
<path d="M11.9508 1H21.4354C21.8486 1 22.2251 1.16846 22.4989 1.44222V1.44485H22.5015L22.5041 1.44748C22.7753 1.72123 22.9437 2.09764 22.9437 2.50827V13.8558C22.9437 14.2691 22.7753 14.6455 22.5015 14.9193L22.4989 14.9219L22.4962 14.9245C22.2225 15.1957 21.8486 15.3641 21.4354 15.3641H15.5151V13.8558H21.4354V2.50827H11.9508V6.70143H10.4424V2.50827C10.4424 2.09501 10.6109 1.7186 10.8846 1.44485L10.8873 1.44222H10.8899C11.1637 1.16846 11.5375 1 11.9508 1ZM21.4354 2.50564V2.50827H21.438L21.4354 2.50564ZM11.9508 2.50827V2.50564L11.9481 2.50827H11.9508ZM21.4354 2.50564C21.4354 2.50301 21.438 2.50827 21.4354 2.50827C21.4354 2.50827 21.4406 2.50827 21.438 2.50827H21.4354V2.50564ZM21.438 13.8558H21.4354V13.8585L21.438 13.8558ZM21.438 13.8558C21.4406 13.8558 21.4354 13.8585 21.4354 13.8558C21.438 13.8585 21.4354 13.8611 21.4354 13.8585V13.8558H21.438ZM11.9481 2.50827C11.9455 2.50827 11.9481 2.50827 11.9508 2.50827C11.9481 2.50827 11.9508 2.50301 11.9508 2.50564L11.9481 2.50827Z" fill="white"/>
</svg>
