<?xml version="1.0" encoding="UTF-8"?>
<svg width="84" height="72" inkscape:export-filename="/Users/gwen/Sites/clients/lokavaluto/lokavaluto-web-application/public/img/monujo-icon-big.png" inkscape:export-xdpi="146.66667" inkscape:export-ydpi="146.66667" inkscape:version="1.0.2 (e86c8708, 2021-01-15)" sodipodi:docname="monujo-icon-big.svg" version="1.1" viewBox="0 0 22.225 19.05" xmlns="http://www.w3.org/2000/svg" xmlns:inkscape="http://www.inkscape.org/namespaces/inkscape" xmlns:sodipodi="http://sodipodi.sourceforge.net/DTD/sodipodi-0.dtd">
 <sodipodi:namedview id="base" bordercolor="#666666" borderopacity="1.0" inkscape:current-layer="layer1" inkscape:cx="59.189052" inkscape:cy="43.864634" inkscape:document-rotation="0" inkscape:document-units="mm" inkscape:pageopacity="0.0" inkscape:pageshadow="2" inkscape:snap-bbox="true" inkscape:snap-global="true" inkscape:window-height="1107" inkscape:window-maximized="0" inkscape:window-width="2048" inkscape:window-x="-5" inkscape:window-y="29" inkscape:zoom="8.2970774" pagecolor="#ffffff" showgrid="false" units="px"/>
 <g inkscape:groupmode="layer" inkscape:label="Calque 1">
  <rect x="-1.9073e-7" y="3.8147e-7" width="22.225" height="19.05" opacity="0" stroke-width=".27327"/>
  <path d="m17.611 10.078c-0.14552 0.2196-0.35983 0.39423-0.64029 0.48419-0.01588 0.0079-0.02646 0.01587-0.04233 0.02117-0.1561 0.11112-0.3466 0.18785-0.56885 0.21696-0.67733 2.2701-2.7781 3.8973-5.2176 3.8973-3.0083 0-5.4557-2.4474-5.4557-5.4557 0-1.9367 1.0239-3.6989 2.6538-4.6752-0.018521-0.18785-0.00265-0.37835 0.044979-0.55827-0.00265-0.0635-0.00529-0.127 0-0.19315-0.00529-0.13494 0.00794-0.26988 0.037042-0.40217-0.068796-0.19315-0.0979-0.40217-0.087317-0.60855-0.14552-0.042333-0.27517-0.10319-0.38365-0.18256h-0.00529c-0.010583 0.00265-0.021167 0.00794-0.034396 0.00794-2.5215 1.2303-4.1354 3.7835-4.1354 6.6119 0 4.0614 3.3046 7.366 7.366 7.366 3.6962 0 6.8368-2.7596 7.3051-6.4214zm-4.9398-7.6359h-0.29104c-0.3466 0-0.69585 0.00529-1.0425 0.013229-0.3466 0.00529-0.69321 0.023812-1.0425 0.034396-0.3466 0.015875-0.69321 0.029104-1.0398 0.050271-0.17462 0.010583-0.3466 0.018521-0.52123 0.029104-0.097896 0.00529-0.19844 0.013229-0.29633 0.018521-0.074083 0.00529-0.14817 0.010583-0.2249 0.013229-0.092604 0.00529-0.18521 0.010583-0.28046 0.018521-0.00265 0.00265-0.00794 0.00265-0.010583 0.00529 0.00529 0.09525 0.010583 0.1905 0.013229 0.28575 0.00794 0.29104 0.00265 0.57944-0.015875 0.86783-0.015875 0.2884-0.047625 0.57415-0.089958 0.8599-0.084667 0.56885-0.21696 1.1298-0.39423 1.6801-0.087312 0.27517-0.1905 0.54504-0.30162 0.81227-0.11112 0.26723-0.23548 0.53181-0.37042 0.7911-0.13758 0.25929-0.28046 0.51329-0.43921 0.76465-0.15875 0.24871-0.32544 0.49477-0.50271 0.73554 0.21431-0.21167 0.4154-0.43127 0.60325-0.6641 0.03175-0.039687 0.092604-0.11642 0.092604-0.11642l0.055562-0.071438s0.20373-0.26988 0.29633-0.40746c0.029104-0.042333 0.058208-0.082021 0.084667-0.12435 0.16404-0.24871 0.3175-0.508 0.46038-0.76994 0.14023-0.26458 0.26723-0.5371 0.381-0.81227 0.22754-0.55562 0.40481-1.1324 0.52388-1.7277 0.058208-0.29633 0.10583-0.59796 0.13758-0.89958 0.021167-0.19844 0.034396-0.39688 0.042333-0.59531 0.079375 0.00265 0.1614 0.00794 0.24077 0.010583 0.17462 0.00794 0.3466 0.013229 0.52123 0.021167 0.3466 0.015875 0.69321 0.023813 1.0425 0.034396 0.3466 0.00529 0.69321 0.015875 1.0425 0.018521 0.254 0.00265 0.508 0.00265 0.76465 0-0.0026 0.23548-0.01058 0.47096-0.02381 0.70644-0.02381 0.37835-0.05821 0.75406-0.11112 1.1298-0.10319 0.74877-0.26723 1.487-0.48419 2.2119-0.10848 0.36248-0.23283 0.71967-0.37042 1.0742-0.13494 0.35454-0.28575 0.70379-0.45244 1.0451-0.16669 0.34131-0.34131 0.68262-0.53446 1.016-0.19315 0.33338-0.39423 0.66146-0.61119 0.9816 0.254-0.29369 0.49212-0.59796 0.71702-0.91546 0.22225-0.3175 0.43656-0.64029 0.62706-0.97631 0.19315-0.33602 0.37306-0.67733 0.53975-1.0292 0.16404-0.3519 0.31221-0.70908 0.44715-1.0742 0.26723-0.73025 0.47096-1.4843 0.61119-2.2542 0.06879-0.38629 0.12171-0.77523 0.15875-1.1668 0.03439-0.39158 0.05292-0.78846 0.05556-1.1853-0.0053-0.15081-0.0053-0.29633-0.0079-0.43921zm1.696 2.839c-0.13494 0.37042-0.2884 0.7329-0.45508 1.0874-0.33338 0.70908-0.72496 1.3838-1.1721 2.0188-0.2249 0.3175-0.46038 0.62442-0.70908 0.92075-0.25135 0.29633-0.51329 0.57944-0.78846 0.8546-0.27252 0.27252-0.56092 0.53181-0.85725 0.77788 0.12435-0.18256 0.24077-0.36512 0.35454-0.55033 0.11377-0.12435 0.22754-0.25135 0.33867-0.381 0.24871-0.2884 0.48419-0.58737 0.70644-0.89429 0.2249-0.30427 0.43656-0.61912 0.635-0.94192 0.39952-0.64294 0.74612-1.315 1.0398-2.0108 0.14817-0.34925 0.28046-0.70379 0.39952-1.061 0.07408-0.22225 0.14288-0.44715 0.20638-0.67469-0.24606-0.0635-0.49212-0.12965-0.73819-0.19844-0.12965-0.034396-0.26194-0.071438-0.39158-0.10848 0.05027-0.30956 0.08996-0.59002 0.12171-0.83344 0.1614 0.037042 0.32544 0.074083 0.48683 0.11642 0.33867 0.082021 0.67469 0.16669 1.0107 0.25665 0.0926 0.023813 0.18785 0.050271 0.28046 0.074083-0.0344 0.14023-0.06879 0.28046-0.10848 0.41804-0.10319 0.38365-0.22225 0.75935-0.35983 1.1298zm-2.032 4.0481c0.9525-1.2277 1.6616-2.5003 2.1537-3.5295 0.22225 0.14552 0.4445 0.29104 0.6641 0.43656-0.77523 1.1774-1.7304 2.2199-2.8178 3.093zm3.4078-2.4156c-0.22754 0.32279-0.46831 0.63235-0.71967 0.93133-0.50535 0.59796-1.061 1.1483-1.6563 1.6484-0.29898 0.24871-0.6059 0.48419-0.9234 0.70644-0.32015 0.2196-0.64558 0.42862-0.9816 0.62177-0.33338 0.19315-0.67998 0.36777-1.0292 0.52917 0.16669-0.14288 0.32808-0.29104 0.48419-0.43921 0.14288-0.09261 0.28575-0.18521 0.42598-0.28046 0.31485-0.21431 0.61912-0.44185 0.91546-0.67998 0.29633-0.23548 0.58208-0.48419 0.85725-0.74348 0.55033-0.51858 1.061-1.0769 1.524-1.6722 0.23283-0.29898 0.45244-0.6059 0.66146-0.9234 0.12965-0.19579 0.254-0.39688 0.37571-0.59796-0.22225-0.12435-0.44185-0.25135-0.66146-0.381-0.11642-0.068792-0.23283-0.13758-0.34925-0.20902 0.12965-0.28575 0.24077-0.54504 0.33073-0.77523 0.14817 0.076729 0.29369 0.1561 0.43921 0.23812 0.30427 0.16669 0.60854 0.33602 0.91017 0.508 0.08467 0.047625 0.16933 0.097896 0.25135 0.14552-0.06879 0.127-0.14023 0.25135-0.21167 0.37571-0.20373 0.34396-0.41804 0.67469-0.64294 0.99748zm0.90488 1.9341c-0.30162 0.254-0.61648 0.48948-0.93662 0.71438-0.64294 0.44715-1.3203 0.83608-2.0267 1.1642-0.3519 0.1614-0.71173 0.30956-1.0769 0.44185-0.36512 0.12965-0.73554 0.24606-1.1086 0.34396-0.37306 0.10054-0.75142 0.17992-1.1324 0.24606 0.19844-0.09525 0.39158-0.19579 0.58208-0.29898 0.1614-0.05027 0.32279-0.10583 0.48419-0.1614 0.35983-0.127 0.71173-0.26723 1.0583-0.42069 0.3466-0.15081 0.68792-0.3175 1.0213-0.49742 0.66675-0.35719 1.3018-0.76465 1.905-1.2197 0.30162-0.22754 0.59267-0.46831 0.87842-0.71967 0.17727-0.1561 0.34925-0.3175 0.51594-0.48154-0.18256-0.17727-0.36248-0.35719-0.53975-0.53975-0.09525-0.09525-0.1905-0.19315-0.2831-0.29104 0.19844-0.24342 0.37306-0.46567 0.52123-0.66146 0.12171 0.11377 0.24342 0.22754 0.36248 0.34396 0.25135 0.23812 0.50006 0.48154 0.74612 0.7276 0.06879 0.068792 0.13758 0.13758 0.20638 0.20638-0.10054 0.10583-0.20108 0.20638-0.30427 0.30956-0.27781 0.27517-0.5715 0.5424-0.87312 0.79375zm0.20108 1.2197c-1.2594 0.63235-2.6061 1.0583-3.9873 1.27 1.4393-0.58473 2.6908-1.3335 3.6301-1.9791 0.11906 0.23548 0.23812 0.47096 0.35719 0.70908zm-6.006 1.9288c0.16933-0.0079 0.33867-0.01852 0.508-0.0291 0.381-0.0291 0.75671-0.07144 1.1324-0.13229 0.37571-0.05556 0.74612-0.12964 1.1139-0.21696 0.73554-0.17198 1.4579-0.40217 2.1564-0.68527 0.34925-0.14288 0.69586-0.29898 1.0345-0.46831 0.21167-0.10583 0.41804-0.21431 0.62442-0.33073-0.12965-0.2196-0.25665-0.43921-0.381-0.66146-0.06879-0.11642-0.13229-0.23548-0.19844-0.35454 0.254-0.18256 0.48154-0.3519 0.67469-0.50535 0.08731 0.14023 0.17727 0.2831 0.26194 0.42598 0.18256 0.29633 0.35983 0.59531 0.53446 0.89694 0.04763 0.084667 0.0979 0.16933 0.14552 0.25135-0.12436 0.07408-0.24871 0.14817-0.37306 0.2196-0.34396 0.19579-0.69585 0.37836-1.053 0.5424-0.35719 0.16669-0.72231 0.31485-1.0901 0.44715-0.73554 0.26723-1.4922 0.46567-2.2569 0.59796-0.38365 0.06615-0.76729 0.11642-1.1536 0.15081-0.38629 0.03175-0.77258 0.04763-1.1615 0.04763-0.38629 0-0.77258-0.02117-1.1562-0.05556 0.21167-0.04233 0.42598-0.08731 0.63765-0.14023z" fill="currentColor" stroke-width=".26458"/>
 </g>
</svg>
